<svg width="19" height="18" viewBox="0 0 19 18" fill="none" xmlns="http://www.w3.org/2000/svg">
<rect width="19" height="18" rx="3" fill="#BD00FF" fill-opacity="0.31"/>
<path fill-rule="evenodd" clip-rule="evenodd" d="M7.88228 7.91312H6.03209C5.76061 7.91086 5.49935 8.01655 5.30579 8.20692C5.11224 8.3973 5.00224 8.65677 5 8.92825V12.7702C5.00502 13.3353 5.46701 13.7894 6.03209 13.7847H7.88228C8.15376 13.7869 8.41501 13.6812 8.60857 13.4909C8.80213 13.3005 8.91212 13.041 8.91436 12.7695V8.92825C8.91212 8.65677 8.80213 8.3973 8.60857 8.20692C8.41501 8.01655 8.15376 7.91086 7.88228 7.91312Z" stroke="#BD00FF" stroke-width="0.747291" stroke-linecap="round" stroke-linejoin="round"/>
<path fill-rule="evenodd" clip-rule="evenodd" d="M7.88228 4.00039H6.03209C5.47837 3.98504 5.01669 4.42074 5 4.97442V5.63594C5.01669 6.18962 5.47837 6.62533 6.03209 6.60997H7.88228C8.43599 6.62533 8.89767 6.18962 8.91436 5.63594V4.97442C8.89767 4.42074 8.43599 3.98504 7.88228 4.00039Z" stroke="#BD00FF" stroke-width="0.747291" stroke-linecap="round" stroke-linejoin="round"/>
<path fill-rule="evenodd" clip-rule="evenodd" d="M11.2518 9.87353H13.1014C13.3729 9.87597 13.6344 9.77036 13.8281 9.57997C14.0218 9.38957 14.1319 9.13 14.1341 8.85841V5.01711C14.1318 4.74563 14.0219 4.48616 13.8283 4.29579C13.6347 4.10541 13.3735 3.99973 13.102 4.00199H11.2518C10.9803 3.99973 10.7191 4.10541 10.5255 4.29579C10.332 4.48616 10.222 4.74563 10.2197 5.01711V8.85841C10.222 9.12989 10.332 9.38936 10.5255 9.57973C10.7191 9.77011 10.9803 9.87579 11.2518 9.87353Z" stroke="#BD00FF" stroke-width="0.747291" stroke-linecap="round" stroke-linejoin="round"/>
<path fill-rule="evenodd" clip-rule="evenodd" d="M11.2518 13.7867H13.1014C13.6553 13.8025 14.1174 13.3666 14.1341 12.8127V12.1512C14.1174 11.5975 13.6557 11.1618 13.102 11.1772H11.2518C10.6981 11.1618 10.2364 11.5975 10.2197 12.1512V12.8121C10.2361 13.366 10.6979 13.8021 11.2518 13.7867Z" stroke="#BD00FF" stroke-width="0.747291" stroke-linecap="round" stroke-linejoin="round"/>
</svg>
