<svg width="213" height="58" viewBox="0 0 213 58" fill="none" xmlns="http://www.w3.org/2000/svg">
<path d="M9.59732 57.0004H0.492664C0.283362 57.0004 0.178711 56.8696 0.178711 56.6079L0.335688 1.39137C0.335688 1.18207 0.440339 1.07742 0.649641 1.07742H10.4607C10.67 1.07742 10.8531 1.18207 11.0101 1.39137L18.3488 11.9873L25.6482 1.39137C25.8052 1.18207 26.0014 1.07742 26.2369 1.07742H36.0871C36.3226 1.07742 36.4403 1.18207 36.4403 1.39137L36.5973 56.6079C36.5973 56.8696 36.4927 57.0004 36.2834 57.0004H27.1787C26.9694 57.0004 26.8648 56.8696 26.8648 56.6079L26.7863 15.5978L18.3488 27.842L9.98976 15.5978L9.91127 56.6079C9.91127 56.8696 9.80662 57.0004 9.59732 57.0004Z" fill="#BD00FF"/>
<path d="M40.6395 56.6079L50.6075 1.39137C50.6598 1.18207 50.7906 1.07742 50.9999 1.07742H62.6555C62.8648 1.07742 62.9956 1.18207 63.0479 1.39137L72.6235 56.6079C72.6496 56.8696 72.545 57.0004 72.3095 57.0004H63.4011C63.1395 57.0004 62.9956 56.8696 62.9694 56.6079L62.106 50.7213H51.1569L50.2935 56.6079C50.2674 56.8696 50.1366 57.0004 49.9011 57.0004H40.9534C40.7441 57.0004 40.6395 56.8696 40.6395 56.6079ZM56.3764 19.5614L52.7659 42.1268H60.497L57.2005 19.5614L56.7296 16.5789L56.3764 19.5614Z" fill="white"/>
<path d="M86.3982 57.0004H78.3531C77.9345 57.0004 77.7252 56.8172 77.7252 56.451L77.6467 1.70533C77.6467 1.28672 77.856 1.07742 78.2746 1.07742H85.5348L99.1133 32.7475L98.7209 1.70533C98.7209 1.28672 98.9563 1.07742 99.4273 1.07742H107.394C107.708 1.07742 107.865 1.28672 107.865 1.70533L107.943 56.5295C107.943 56.8434 107.812 57.0004 107.551 57.0004H100.487L86.5552 27.4103L87.1438 56.3725C87.1438 56.7911 86.8953 57.0004 86.3982 57.0004Z" fill="white"/>
<path d="M112.221 56.6079L122.189 1.39137C122.241 1.18207 122.372 1.07742 122.581 1.07742H134.237C134.446 1.07742 134.577 1.18207 134.629 1.39137L144.205 56.6079C144.231 56.8696 144.126 57.0004 143.891 57.0004H134.982C134.721 57.0004 134.577 56.8696 134.551 56.6079L133.687 50.7213H122.738L121.875 56.6079C121.849 56.8696 121.718 57.0004 121.482 57.0004H112.535C112.326 57.0004 112.221 56.8696 112.221 56.6079ZM127.958 19.5614L124.347 42.1268H132.078L128.782 19.5614L128.311 16.5789L127.958 19.5614Z" fill="white"/>
<path d="M163.945 57.7853C161.041 57.7853 158.424 57.0658 156.096 55.6268C153.741 54.1879 151.844 52.2518 150.405 49.8187C148.993 47.3856 148.286 44.6646 148.286 41.6559V16.1864C148.286 13.2562 149.006 10.5876 150.445 8.18062C151.857 5.74748 153.754 3.81143 156.135 2.37248C158.516 0.907363 161.119 0.174805 163.945 0.174805C166.901 0.174805 169.57 0.8812 171.951 2.29399C174.331 3.73294 176.215 5.65591 177.602 8.06289C179.014 10.4699 179.721 13.1777 179.721 16.1864V19.8754C179.721 20.0847 179.59 20.1893 179.328 20.1893H170.302C170.093 20.1893 169.988 20.0847 169.988 19.8754V16.8143C169.988 14.7736 169.413 13.0861 168.262 11.7518C167.11 10.4175 165.671 9.75039 163.945 9.75039C162.401 9.75039 161.028 10.3914 159.824 11.6734C158.621 12.9553 158.019 14.4597 158.019 16.1864V41.6559C158.019 43.4088 158.607 44.9263 159.785 46.2082C160.962 47.4641 162.349 48.092 163.945 48.092C165.671 48.092 167.11 47.4771 168.262 46.2475C169.413 44.9917 169.988 43.4611 169.988 41.6559V37.6922H164.376C164.089 37.6922 163.945 37.5614 163.945 37.2998V28.3129C163.945 28.0513 164.089 27.9204 164.376 27.9204H179.407C179.616 27.9204 179.721 28.0513 179.721 28.3129V41.6559C179.721 44.6646 179.014 47.3856 177.602 49.8187C176.163 52.2518 174.266 54.1879 171.911 55.6268C169.557 57.0658 166.901 57.7853 163.945 57.7853Z" fill="white"/>
<path d="M211.705 57.0004H185.725C185.516 57.0004 185.411 56.8696 185.411 56.6079L185.49 1.39137C185.49 1.18207 185.594 1.07742 185.804 1.07742H211.626C211.836 1.07742 211.94 1.20823 211.94 1.46986V10.4568C211.94 10.6661 211.836 10.7707 211.626 10.7707H195.144V23.3289H211.626C211.836 23.3289 211.94 23.4335 211.94 23.6428L212.019 32.7475C212.019 32.9568 211.914 33.0614 211.705 33.0614H195.144V47.1109H211.705C211.914 47.1109 212.019 47.2417 212.019 47.5033V56.6864C212.019 56.8957 211.914 57.0004 211.705 57.0004Z" fill="white"/>
</svg>
