<svg width="14" height="16" viewBox="0 0 14 16" fill="none" xmlns="http://www.w3.org/2000/svg">
    <path
        d="M0.477191 3.96225C0.180202 4.25099 0.173514 4.72582 0.462254 5.02281C0.750993 5.3198 1.22582 5.32649 1.52281 5.03775L0.477191 3.96225ZM4.6 1H5.35C5.35 0.698575 5.16955 0.426437 4.89188 0.309129C4.61422 0.19182 4.29331 0.252137 4.07719 0.462254L4.6 1ZM3.85 15C3.85 15.4142 4.18579 15.75 4.6 15.75C5.01421 15.75 5.35 15.4142 5.35 15H3.85ZM13.5228 12.0377C13.8198 11.749 13.8265 11.2742 13.5377 10.9772C13.249 10.6802 12.7742 10.6735 12.4772 10.9623L13.5228 12.0377ZM9.4 15H8.65C8.65 15.3014 8.83045 15.5736 9.10811 15.6909C9.38578 15.8082 9.70669 15.7479 9.92281 15.5377L9.4 15ZM10.15 1C10.15 0.585786 9.81421 0.25 9.4 0.25C8.98579 0.25 8.65 0.585786 8.65 1H10.15ZM1.52281 5.03775L5.12281 1.53775L4.07719 0.462254L0.477191 3.96225L1.52281 5.03775ZM3.85 1V15H5.35V1H3.85ZM12.4772 10.9623L8.87719 14.4623L9.92281 15.5377L13.5228 12.0377L12.4772 10.9623ZM10.15 15V1H8.65V15H10.15Z"
        fill="white" />
</svg>