<svg width="14" height="16" viewBox="0 0 14 16" fill="none" xmlns="http://www.w3.org/2000/svg">
<path fill-rule="evenodd" clip-rule="evenodd" d="M9.47694 10H4.52294C3.06488 10.0724 1.7731 10.963 1.18693 12.3C0.479935 13.688 1.89093 15 3.53193 15H10.4679C12.1099 15 13.5209 13.688 12.8129 12.3C12.2268 10.963 10.935 10.0724 9.47694 10Z" stroke="white" stroke-width="1.5" stroke-linecap="round" stroke-linejoin="round"/>
<path fill-rule="evenodd" clip-rule="evenodd" d="M10 4C10 5.65685 8.65685 7 7 7C5.34315 7 4 5.65685 4 4C4 2.34315 5.34315 1 7 1C7.79565 1 8.55871 1.31607 9.12132 1.87868C9.68393 2.44129 10 3.20435 10 4Z" stroke="white" stroke-width="1.5" stroke-linecap="round" stroke-linejoin="round"/>
</svg>
